<svg id="Layer_1" enable-background="new 0 0 512.003 512.003" height="512" viewBox="0 0 512.003 512.003" width="512" xmlns="http://www.w3.org/2000/svg"><path d="m256 512.002c-68.38 0-132.667-26.629-181.02-74.98-48.351-48.353-74.98-112.64-74.98-181.02 0-68.262 26.739-132.549 75.293-181.017 48.446-48.363 112.611-74.983 180.708-74.983h.455c11.045.019 19.984 8.989 19.965 20.035-.02 11.034-8.971 19.965-19.999 19.965-.142-.002-.28 0-.42 0-57.43 0-111.554 22.467-152.449 63.292-40.983 40.91-63.553 95.143-63.553 152.708 0 119.103 96.897 216 216 216 90.928 0 172.681-47.482 218.688-127.015 5.531-9.561 17.766-12.83 27.327-7.298 9.562 5.531 12.828 17.766 7.298 27.327-25.425 43.951-61.674 80.74-104.828 106.39-44.683 26.558-96.028 40.596-148.485 40.596zm105.704-115.176c38.707-18.712 69.732-47.781 89.721-84.067 18.521-33.623 27.18-72.318 25.04-111.902-2.182-40.348-15.36-78.829-38.112-111.281-24.4-34.805-58.855-60.883-99.641-75.413-10.402-3.705-21.845 1.722-25.552 12.128-3.707 10.405 1.723 21.845 12.128 25.552 64.818 23.093 107.441 81.02 111.234 151.174 3.68 68.054-31.659 128.518-92.227 157.796-9.945 4.808-14.109 16.767-9.303 26.711 3.452 7.141 10.589 11.301 18.021 11.301 2.921-.001 5.886-.644 8.691-1.999zm-66.704 1.176c0-11.046-8.954-20-20-20-80.075 0-136-50.093-136-121.817 0-32.321 12.546-62.728 35.327-85.642 19.204-18.393 43.891-28.527 69.536-28.541h.054c23.657 0 47.797 8.865 66.231 24.325 8.466 7.099 21.079 5.988 28.176-2.473 7.098-8.464 5.99-21.079-2.473-28.176-25.523-21.404-59.027-33.675-91.936-33.675-.024 0-.051 0-.074 0-36.093.021-70.678 14.172-97.386 39.848-.1.097-.199.194-.298.292-30.409 30.482-47.157 70.983-47.157 114.041 0 44.311 17.237 85.053 48.537 114.723 32.037 30.37 77.304 47.095 127.463 47.095 11.046 0 20-8.954 20-20zm-18.798-71.001c24.719-.25 47.425-9.651 65.664-27.187 22.278-21.419 34.719-51.016 34.13-81.203-.213-10.911-9.124-19.61-19.988-19.61-.133 0-.266.001-.397.004-11.044.215-19.822 9.343-19.606 20.386.377 19.351-7.386 37.671-21.86 51.586-10.753 10.339-24.013 15.88-38.347 16.024-.146.002-.291.002-.438.002-11.128 0-21.722-4.3-29.874-12.138-5.472-5.261-8.485-12.194-8.485-19.524s3.014-14.263 8.485-19.524c3.239-3.114 8.852-4.874 15.354-4.817 11.02.121 20.071-8.792 20.16-19.838.09-11.045-8.792-20.072-19.838-20.161-.204-.001-.406-.002-.61-.002-16.878 0-32.055 5.665-42.787 15.983-13.391 12.873-20.765 30.048-20.765 48.361s7.373 35.487 20.764 48.36c15.651 15.047 36.071 23.303 57.586 23.302.283 0 .569-.001.852-.004z"/></svg>