<svg width="30" height="30" viewBox="0 0 30 30" fill="none" xmlns="http://www.w3.org/2000/svg">
<path d="M24.9554 16.1058L21.5166 19.5447C21.1847 19.8765 20.6468 19.8765 20.315 19.5447L20.2736 19.5033C19.9418 19.1714 19.9418 18.6335 20.2736 18.3017L24.9554 13.6199C25.4703 13.105 25.4703 12.2703 24.9554 11.7555C24.4406 11.2406 23.6058 11.2406 23.091 11.7555L18.4092 16.4373C18.0773 16.7691 17.5394 16.7691 17.2076 16.4373L17.1662 16.3959C16.8344 16.064 16.8344 15.5261 17.1662 15.1943L23.091 9.26956C23.6058 8.75469 23.6058 7.91996 23.091 7.4051C22.5761 6.89024 21.7414 6.89024 21.2265 7.4051L15.3018 13.3299C14.9699 13.6617 14.432 13.6617 14.1002 13.3299C13.7685 12.9981 13.7684 12.4601 14.1002 12.1283L18.782 7.44653C19.2969 6.93166 19.2969 6.09693 18.782 5.58207C18.2672 5.06721 17.4325 5.06721 16.9176 5.58207C15.8787 6.62106 7.43895 15.0607 7.08791 15.4118C6.83432 13.3401 6.51527 10.2038 6.5151 10.2018V10.2018C6.5151 9.70778 6.30814 9.21366 5.89412 8.86081C4.79203 7.92155 3.03645 8.66416 3 10.1586C3.51434 18.9024 1.9807 23.5836 6.00023 27.6032C8.74611 30.3491 13.8195 30.9706 16.5654 28.2247L26.8198 17.9703C27.3347 17.4554 27.3347 16.6207 26.8198 16.1058C26.305 15.591 25.4702 15.591 24.9554 16.1058V16.1058Z" fill="white"/>
<path d="M4.75703 6.68742C5.48945 6.68742 6.20078 6.91535 6.79082 7.33312C6.65195 6.0505 6.54531 5.00519 6.54531 5.00519C6.54531 5.00461 6.54531 5.00461 6.54531 5.00402C6.54473 4.51066 6.33789 4.0173 5.92422 3.66457C4.82189 2.72461 3.06637 3.46816 3.03027 4.96242C3.07363 5.70011 3.10234 6.40851 3.12109 7.08996C3.62148 6.82746 4.1834 6.68742 4.75703 6.68742V6.68742Z" fill="white"/>
<path d="M8.42715 11.5875L15.6746 4.33942C16.2002 3.81442 16.8817 3.50271 17.6152 3.44763L18.8123 2.25056C19.3268 1.73552 19.3268 0.901143 18.8123 0.386104C18.2955 -0.129521 17.4618 -0.127881 16.9479 0.386104C16.1106 1.22282 10.475 6.85896 8.12891 9.20505C8.21387 9.49275 8.2625 9.79216 8.27129 10.098C8.2918 10.2937 8.34981 10.8597 8.42715 11.5875V11.5875Z" fill="white"/>
<path d="M20.7832 5.58405C21.1365 5.4071 21.5221 5.29988 21.9234 5.27058L23.1211 4.07292C23.6356 3.55847 23.6356 2.72351 23.1211 2.20847C22.6066 1.69519 21.7714 1.69366 21.2566 2.20847L19.5293 3.93581C20.1008 4.30859 20.5629 4.88521 20.7832 5.58405V5.58405Z" fill="white"/>
</svg>
