<svg width="31" height="31" viewBox="0 0 31 31" fill="none" xmlns="http://www.w3.org/2000/svg">
<path d="M8.5325 24.0581H18.5325V27.8081H8.5325V24.0581ZM24.9825 14.8081C24.745 14.5581 24.42 14.4081 24.0575 14.4081L23.7825 14.4456L19.7825 16.5581V15.0956L20.42 3.93311C20.4575 3.24561 19.9325 2.64561 19.245 2.60811C18.5575 2.57061 17.9575 3.09561 17.92 3.78311L17.5825 9.6456H17.2825L15.9825 9.7831V2.80811C15.9825 2.47658 15.8508 2.15864 15.6164 1.92422C15.382 1.6898 15.064 1.55811 14.7325 1.55811C14.0575 1.55811 13.4825 2.12061 13.4825 2.80811V10.8206L12.4575 11.2831L11.595 4.45811C11.5075 3.77061 10.8825 3.28311 10.195 3.37061C9.5075 3.43311 9.02 4.05811 9.1075 4.77061L10.07 12.3456L9.595 12.5581C9.4325 12.6206 9.28251 12.7206 9.14501 12.8081L7.77 7.94561C7.57 7.23311 6.87001 6.80811 6.19501 6.98311C5.53251 7.18311 5.15751 7.9081 5.35751 8.6206L8.57001 20.0206C8.57001 20.0581 8.595 20.1081 8.6075 20.1456L8.64501 20.3081H8.6575C8.9325 21.0206 9.645 21.5581 10.4075 21.5581H18.5325C19.02 21.5581 19.4575 21.3581 19.7825 21.0206L25.9325 15.7706L24.9825 14.8081Z" fill="black"/>
</svg>
